<svg width="49" height="43" viewBox="0 0 49 43" fill="none" xmlns="http://www.w3.org/2000/svg">
<rect width="49" height="43" rx="10" fill="#1F75FE" fill-opacity="0.05"/>
<path d="M23.8198 17.5142V20.094" stroke="#1F75FE" stroke-width="1.5" stroke-miterlimit="10" stroke-linecap="round"/>
<path d="M23.8349 14.0737C20.9839 14.0737 18.6752 16.3824 18.6752 19.2334V20.8603C18.6752 21.3871 18.4583 22.1774 18.1871 22.6267L17.2032 24.2691C16.599 25.284 17.0173 26.4151 18.1329 26.787C21.8361 28.0188 25.8414 28.0188 29.5446 26.787C30.5905 26.4383 31.0398 25.2143 30.4743 24.2691L29.4904 22.6267C29.2192 22.1774 29.0023 21.3794 29.0023 20.8603V19.2334C28.9946 16.3979 26.6704 14.0737 23.8349 14.0737Z" stroke="#1F75FE" stroke-width="1.5" stroke-miterlimit="10" stroke-linecap="round"/>
<path d="M26.3995 27.1045C26.3995 28.5222 25.2375 29.6843 23.8197 29.6843C23.1147 29.6843 22.4639 29.3899 21.9991 28.9251C21.5343 28.4603 21.2399 27.8095 21.2399 27.1045" stroke="#1F75FE" stroke-width="1.5" stroke-miterlimit="10"/>
</svg>
