<svg width="49" height="43" viewBox="0 0 49 43" fill="none" xmlns="http://www.w3.org/2000/svg">
<rect width="49" height="43" rx="10" fill="#1F75FE" fill-opacity="0.05"/>
<path d="M31.6667 21.9998V16.7907C31.6668 16.7249 31.6538 16.6597 31.6287 16.599C31.6035 16.5382 31.5666 16.483 31.52 16.4365L28.8967 13.8132C28.803 13.7194 28.6759 13.6666 28.5434 13.6665H18.8334C18.7008 13.6665 18.5736 13.7192 18.4798 13.813C18.3861 13.9067 18.3334 14.0339 18.3334 14.1665V29.8332C18.3334 29.9658 18.3861 30.093 18.4798 30.1867C18.5736 30.2805 18.7008 30.3332 18.8334 30.3332H25.8334M21.6667 20.3332H28.3334M21.6667 16.9998H25M21.6667 23.6665H24.1667" stroke="#1F75FE" stroke-width="1.25" stroke-linecap="round" stroke-linejoin="round"/>
<path d="M28.3334 13.6665V16.4998C28.3334 16.6324 28.3861 16.7596 28.4798 16.8534C28.5736 16.9472 28.7008 16.9998 28.8334 16.9998H31.6667M31.66 24.604L33.79 25.1448C34.0117 25.2015 34.1675 25.4032 34.1609 25.6315C34.0175 30.4298 31.25 31.1665 31.25 31.1665C31.25 31.1665 28.4825 30.4298 28.3392 25.6315C28.3369 25.5204 28.3724 25.4118 28.4397 25.3235C28.507 25.2351 28.6023 25.1721 28.71 25.1448L30.84 24.604C31.1092 24.5357 31.3909 24.5357 31.66 24.604Z" stroke="#1F75FE" stroke-width="1.25" stroke-linecap="round" stroke-linejoin="round"/>
</svg>
