<svg width="49" height="43" viewBox="0 0 49 43" fill="none" xmlns="http://www.w3.org/2000/svg">
<rect width="49" height="43" rx="10" fill="#1F75FE" fill-opacity="0.05"/>
<g clip-path="url(#clip0_2538_10278)">
<path d="M23.5 16C24.163 16 24.7989 16.2634 25.2678 16.7322C25.7366 17.2011 26 17.837 26 18.5C26 19.023 25.833 19.423 25.577 19.74C25.3963 19.9553 25.1863 20.1442 24.953 20.301L24.786 20.418C24.524 20.6 24.335 20.735 24.2 20.901C24.0618 21.0688 23.9905 21.2818 24 21.499V22.499C24 22.6316 23.9473 22.7588 23.8536 22.8526C23.7598 22.9463 23.6326 22.999 23.5 22.999C23.3674 22.999 23.2402 22.9463 23.1464 22.8526C23.0527 22.7588 23 22.6316 23 22.499V21.499C23 20.98 23.168 20.583 23.425 20.269C23.61 20.043 23.838 19.865 24.041 19.719L24.214 19.598C24.474 19.417 24.663 19.281 24.798 19.113C24.9388 18.9407 25.0108 18.7223 25 18.5C25 18.1022 24.842 17.7206 24.5607 17.4393C24.2794 17.158 23.8978 17 23.5 17C23.1022 17 22.7206 17.158 22.4393 17.4393C22.158 17.7206 22 18.1022 22 18.5C22 18.6326 21.9473 18.7598 21.8536 18.8536C21.7598 18.9473 21.6326 19 21.5 19C21.3674 19 21.2402 18.9473 21.1464 18.8536C21.0527 18.7598 21 18.6326 21 18.5C21 17.837 21.2634 17.2011 21.7322 16.7322C22.2011 16.2634 22.837 16 23.5 16ZM23.5 24.1C23.7321 24.1 23.9546 24.1922 24.1187 24.3563C24.2828 24.5204 24.375 24.7429 24.375 24.975C24.375 25.2071 24.2828 25.4296 24.1187 25.5937C23.9546 25.7578 23.7321 25.85 23.5 25.85C23.2679 25.85 23.0454 25.7578 22.8813 25.5937C22.7172 25.4296 22.625 25.2071 22.625 24.975C22.625 24.7429 22.7172 24.5204 22.8813 24.3563C23.0454 24.1922 23.2679 24.1 23.5 24.1Z" fill="#1F75FE"/>
<path fill-rule="evenodd" clip-rule="evenodd" d="M23.5 28C24.68 28 25.69 27.863 26.55 27.611C27.55 28.31 28.88 29.031 30.6 29.881C31.516 30.337 32.39 29.303 31.81 28.461C31.083 27.391 30.45 26.351 29.95 25.171C30.686 24.001 30.99 22.561 30.99 21.001C30.99 17.131 29.11 14.001 23.49 14.001C17.87 14.001 15.99 17.141 15.99 21.001C15.99 24.871 17.87 28.001 23.49 28.001L23.5 28ZM29.11 24.64C29.0242 24.7759 28.9724 24.9304 28.959 25.0906C28.9456 25.2507 28.971 25.4117 29.033 25.56C29.549 26.79 30.203 27.87 30.923 28.93C29.273 28.107 28.043 27.43 27.123 26.79C27.0005 26.7045 26.8603 26.6475 26.7129 26.6233C26.5654 26.5991 26.4144 26.6082 26.271 26.65C25.513 26.871 24.601 26.999 23.501 26.999C20.871 26.999 19.301 26.271 18.371 25.269C17.43 24.249 17 22.789 17 20.999C17 19.209 17.434 17.739 18.37 16.729C19.297 15.729 20.87 14.999 23.5 14.999C26.13 14.999 27.7 15.727 28.63 16.729C29.57 17.749 30 19.209 30 20.999C30 22.439 29.716 23.679 29.112 24.639L29.11 24.64Z" fill="#1F75FE"/>
</g>
<defs>
<clipPath id="clip0_2538_10278">
<rect width="16" height="16" fill="white" transform="translate(16 14)"/>
</clipPath>
</defs>
</svg>
