<svg width="49" height="43" viewBox="0 0 49 43" fill="none" xmlns="http://www.w3.org/2000/svg">
<rect width="49" height="43" rx="10" fill="#1F75FE" fill-opacity="0.05"/>
<path d="M23.77 30V29H30.385C30.5517 29 30.6957 28.9487 30.817 28.846C30.939 28.7433 31 28.6087 31 28.442V21.554C31 19.6807 30.3113 18.1163 28.934 16.861C27.556 15.605 25.9113 14.977 24 14.977C22.0887 14.977 20.444 15.605 19.066 16.861C17.6887 18.1163 17 19.6807 17 21.554V27.231H16.5C16.0913 27.231 15.739 27.0927 15.443 26.816C15.1477 26.54 15 26.198 15 25.79V23.905C15 23.6063 15.097 23.3413 15.291 23.11C15.4857 22.878 15.722 22.6897 16 22.545L16.017 21.316C16.035 20.2727 16.2617 19.306 16.697 18.416C17.1323 17.526 17.7137 16.7517 18.441 16.093C19.1683 15.4343 20.0097 14.921 20.965 14.553C21.9203 14.185 22.932 14.0007 24 14C25.068 13.9993 26.079 14.1833 27.033 14.552C27.987 14.9207 28.8247 15.4333 29.546 16.09C30.2673 16.7467 30.8457 17.52 31.281 18.41C31.7163 19.3 31.9503 20.2667 31.983 21.31L32 22.513C32.2653 22.6377 32.4983 22.8053 32.699 23.016C32.8997 23.226 33 23.4783 33 23.773V25.939C33 26.2337 32.8997 26.486 32.699 26.696C32.4983 26.906 32.2653 27.0733 32 27.198V28.442C32 28.8767 31.8427 29.245 31.528 29.547C31.2133 29.849 30.8323 30 30.385 30H23.77ZM21.385 23.539C21.1783 23.539 20.9983 23.4687 20.845 23.328C20.6917 23.188 20.615 23.0147 20.615 22.808C20.615 22.6013 20.6917 22.4247 20.845 22.278C20.9983 22.1313 21.1783 22.058 21.385 22.058C21.5917 22.058 21.7713 22.1313 21.924 22.278C22.0767 22.4247 22.1533 22.6013 22.154 22.808C22.1547 23.0147 22.078 23.188 21.924 23.328C21.77 23.468 21.59 23.538 21.384 23.538M26.616 23.538C26.4093 23.538 26.2293 23.468 26.076 23.328C25.9227 23.188 25.846 23.0147 25.846 22.808C25.846 22.6013 25.9227 22.4247 26.076 22.278C26.2293 22.1313 26.4093 22.058 26.616 22.058C26.8227 22.058 27.0023 22.1313 27.155 22.278C27.3077 22.4247 27.3843 22.6013 27.385 22.808C27.3857 23.0147 27.309 23.188 27.155 23.328C27.001 23.468 26.821 23.538 26.615 23.538M18.718 21.95C18.6273 20.4527 19.1097 19.1763 20.165 18.121C21.2197 17.0657 22.515 16.538 24.051 16.538C25.3417 16.538 26.4857 16.9257 27.483 17.701C28.4803 18.4763 29.089 19.4947 29.309 20.756C27.9843 20.7393 26.755 20.4013 25.621 19.742C24.487 19.0827 23.617 18.166 23.011 16.992C22.7697 18.146 22.268 19.1573 21.506 20.026C20.7433 20.8947 19.814 21.536 18.718 21.95Z" fill="#1F75FE"/>
</svg>
