<svg width="21" height="19" viewBox="0 0 21 19" fill="none" xmlns="http://www.w3.org/2000/svg">
<path fill-rule="evenodd" clip-rule="evenodd" d="M11.728 0.687989C11.3769 0.41488 10.9448 0.266602 10.5 0.266602C10.0552 0.266602 9.62308 0.41488 9.272 0.687989L0.887997 7.20799C0.135997 7.79499 0.549997 8.99999 1.503 8.99999H2.595L3.415 17.199C3.46435 17.6925 3.6953 18.1501 4.06303 18.4829C4.43076 18.8157 4.90903 19 5.405 19H15.595C16.091 19 16.5692 18.8157 16.937 18.4829C17.3047 18.1501 17.5356 17.6925 17.585 17.199L18.405 8.99999H19.497C20.449 8.99999 20.865 7.79499 20.112 7.20899L11.728 0.687989ZM10.5 14C11.2956 14 12.0587 13.6839 12.6213 13.1213C13.1839 12.5587 13.5 11.7956 13.5 11C13.5 10.2043 13.1839 9.44128 12.6213 8.87867C12.0587 8.31606 11.2956 7.99999 10.5 7.99999C9.70435 7.99999 8.94129 8.31606 8.37868 8.87867C7.81607 9.44128 7.5 10.2043 7.5 11C7.5 11.7956 7.81607 12.5587 8.37868 13.1213C8.94129 13.6839 9.70435 14 10.5 14Z" fill="#1F75FE"/>
</svg>
