<svg width="49" height="43" viewBox="0 0 49 43" fill="none" xmlns="http://www.w3.org/2000/svg">
<rect width="49" height="43" rx="10" fill="#1F75FE" fill-opacity="0.05"/>
<g clip-path="url(#clip0_2539_9784)">
<path d="M27.5578 12.1446C26.267 12.1446 25.0639 12.6676 24.0724 13.6584C22.9462 14.7846 22.4308 16.1692 22.5816 17.6492C22.6947 18.7476 23.1962 19.8553 24.0001 20.8461L18.4231 26.423L17.4131 25.413C16.9208 24.9184 16.5124 25.3284 16.0193 25.8223L15.5385 26.3269C15.0447 26.8184 14.637 27.2038 15.1301 27.6969L16.1385 28.7076L15.3462 29.5C15.2289 29.6165 15.1358 29.7551 15.0722 29.9078C15.0087 30.0605 14.976 30.2242 14.976 30.3896C14.976 30.5549 15.0087 30.7187 15.0722 30.8714C15.1358 31.024 15.2289 31.1626 15.3462 31.2792C15.8385 31.7707 16.6316 31.7707 17.1255 31.2792L25.8755 22.5292C26.8231 23.123 27.8524 23.4423 28.8555 23.4423C30.1455 23.4423 31.3508 22.9192 32.3416 21.9276C33.4685 20.8023 33.9831 19.4176 33.8316 17.9376C33.6962 16.6061 32.9893 15.2661 31.8608 14.1392C30.5824 12.8592 29.0555 12.1446 27.5578 12.1446ZM27.6062 13.7307C28.6778 13.7307 29.7908 14.2792 30.7547 15.2453C31.6116 16.0992 32.1462 17.093 32.2455 18.0576C32.3478 19.0607 31.9947 20.0161 31.2116 20.7984C30.5101 21.4984 29.6924 21.8553 28.8078 21.8553C27.7355 21.8553 26.6247 21.3061 25.6585 20.3415C24.8024 19.4853 24.2678 18.4938 24.1685 17.5292C24.067 16.5261 24.4185 15.5715 25.2024 14.7884C25.9039 14.0884 26.7224 13.7307 27.6062 13.7307Z" fill="#1F75FE"/>
</g>
<defs>
<clipPath id="clip0_2539_9784">
<rect width="20" height="20" fill="white" transform="translate(14 12)"/>
</clipPath>
</defs>
</svg>
