<?xml version="1.0" encoding="UTF-8"?>
<svg id="Layer_3" data-name="Layer 3" xmlns="http://www.w3.org/2000/svg" viewBox="0 0 596.02 596.02">
  <defs>
    <style>
      .cls-1 {
        fill: #fff;
      }

      .cls-2 {
        fill: #1f75fd;
      }

      .cls-3 {
        fill: #231f20;
      }
    </style>
  </defs>
  <rect class="cls-2" x="360.25" y="225.74" width="106.9" height="106.9" rx="24.34" ry="24.34"/>
  <path class="cls-3" d="m400.65,344.91l-11.66,11.66c-1.25,1.25-3.29,1.25-4.54,0l-12.24-12.24c-13.73-2.7-24.18-14.87-24.18-29.37v-17.14l-8.93,8.91c-1.25,1.25-3.29,1.25-4.54,0l-31.38-31.38c-1.25-1.25-1.25-3.27,0-4.54l31.38-31.41c1.25-1.25,3.29-1.25,4.54,0l8.93,8.93v-5.03c0-6.43,2.06-12.42,5.54-17.32l-9.74-9.74c-1.91-1.91-4.41-2.91-7.01-2.91s-5.1,1-6.96,2.91l-40.66,40.61c-1.25,1.25-3.29,1.25-4.54,0l-40.61-40.61c-1.86-1.91-4.33-2.91-6.96-2.91s-5.11,1-6.97,2.86l-97.46,97.49c-5.08,5.1-5.1,13.37,0,18.47l47.58,47.61c1.91,1.86,4.37,2.89,6.97,2.89s5.1-1.04,6.96-2.89l40.66-40.66c1.25-1.25,3.27-1.25,4.52.02l40.61,40.64c1.87,1.86,4.37,2.89,6.97,2.89s5.15-1.04,7.01-2.89l40.61-40.64c1.25-1.27,3.29-1.27,4.54,0l40.61,40.64c1.86,1.86,4.37,2.89,7.01,2.89s5.07-1.04,6.92-2.89l34.87-34.87h-27.86Zm-179.73-19.72l-31.43,31.38c-1.25,1.25-3.27,1.25-4.52,0l-31.38-31.38c-1.25-1.25-1.25-3.27,0-4.52l31.38-31.38c1.25-1.25,3.27-1.25,4.52,0l31.43,31.38c1.25,1.25,1.25,3.27,0,4.52Zm13.93-18.45l-31.41-31.38c-1.27-1.25-1.27-3.29-.02-4.54l31.43-31.41c1.25-1.25,3.27-1.25,4.52,0l31.38,31.41c1.25,1.27,1.25,3.29,0,4.54l-31.38,31.38c-1.25,1.25-3.27,1.25-4.52,0Zm85.78,18.45l-31.41,31.43c-1.25,1.25-3.29,1.25-4.54,0l-31.38-31.43c-1.25-1.25-1.25-3.27,0-4.52l31.38-31.38c1.25-1.25,3.29-1.25,4.54,0l31.41,31.38c1.25,1.25,1.25,3.27,0,4.52Z"/>
  <path class="cls-1" d="m413.45,263.59c-.98,0-1.9.07-2.78.2-.88.13-1.68.34-2.39.63-.72.29-1.3.75-1.76,1.37-.46.62-.65,1.41-.59,2.39.06,1.11.5,1.98,1.32,2.63.81.65,1.97,1.17,3.46,1.56,1.43.39,3.02.76,4.78,1.12,1.76.36,3.48.73,5.17,1.12,1.69.39,3.35.85,4.98,1.37,1.62.52,3.06,1.17,4.29,1.95,1.69,1.04,3.09,2.5,4.2,4.39,1.11,1.89,1.63,4.2,1.56,6.93,0,2.67-.44,4.96-1.32,6.88-.88,1.92-2.07,3.56-3.56,4.93-1.89,1.69-4.26,2.91-7.12,3.66-2.86.75-5.76,1.12-8.68,1.12-3.38,0-6.49-.36-9.32-1.07-2.83-.71-5.41-1.98-7.76-3.8-1.69-1.37-3.11-3.04-4.24-5.02-1.14-1.98-1.81-4.37-2-7.17h13.85c.39,2.21,1.48,3.74,3.27,4.59,1.79.85,3.92,1.27,6.39,1.27.71,0,1.48-.05,2.29-.15.81-.1,1.56-.29,2.24-.59s1.27-.75,1.76-1.37c.49-.62.73-1.28.73-2,.06-1.69-.5-2.89-1.71-3.61-1.2-.72-2.49-1.2-3.85-1.46-1.37-.32-2.83-.65-4.39-.98-1.56-.32-3.11-.65-4.63-.98-1.53-.32-3.04-.73-4.54-1.22-1.5-.49-2.86-1.15-4.1-2-1.89-1.17-3.46-2.73-4.73-4.68-1.27-1.95-1.8-4.52-1.61-7.71.13-2.8.83-5.19,2.1-7.17,1.27-1.98,2.86-3.58,4.78-4.78,1.92-1.2,4.1-2.06,6.54-2.59,2.44-.52,4.93-.78,7.46-.78,2.8,0,5.43.29,7.9.88,2.47.59,4.63,1.53,6.49,2.83,1.85,1.3,3.35,2.99,4.49,5.07,1.14,2.08,1.77,4.62,1.9,7.61h-13.27c-.26-2.15-1.09-3.58-2.49-4.29-1.4-.72-3.11-1.07-5.12-1.07Z"/>
</svg>