<?xml version="1.0" encoding="UTF-8"?>
<svg id="Layer_3" data-name="Layer 3" xmlns="http://www.w3.org/2000/svg" viewBox="0 0 596.02 596.02">
  <defs>
    <style>
      .cls-1 {
        fill: #fff;
      }

      .cls-2 {
        fill: #1f75fd;
      }

      .cls-3 {
        fill: #231f20;
      }
    </style>
  </defs>
  <path class="cls-3" d="m487.18,154.2v287.62c0,25.08-20.3,45.38-45.38,45.38H154.18c-25.04,0-45.34-20.3-45.34-45.38V154.2c0-25.04,20.3-45.38,45.34-45.38h287.63c25.08,0,45.38,20.34,45.38,45.38Z"/>
  <g>
    <rect class="cls-2" x="354.71" y="232.17" width="97.39" height="97.39" rx="22.17" ry="22.17"/>
    <path class="cls-1" d="m391.52,340.74l-10.62,10.62c-1.14,1.14-3,1.14-4.14,0l-11.15-11.15c-12.51-2.46-22.03-13.54-22.03-26.76v-15.61l-8.14,8.12c-1.14,1.14-3,1.14-4.14,0l-28.59-28.59c-1.14-1.14-1.14-2.98,0-4.13l28.59-28.62c1.14-1.14,3-1.14,4.14,0l8.14,8.14v-4.58c0-5.86,1.87-11.31,5.05-15.78l-8.87-8.87c-1.74-1.74-4.02-2.65-6.38-2.65s-4.64.91-6.34,2.65l-37.04,36.99c-1.14,1.14-3,1.14-4.14,0l-36.99-36.99c-1.69-1.74-3.94-2.65-6.34-2.65s-4.66.91-6.35,2.61l-88.79,88.82c-4.63,4.64-4.64,12.18,0,16.83l43.35,43.38c1.74,1.69,3.99,2.64,6.35,2.64s4.64-.94,6.34-2.64l37.04-37.04c1.14-1.14,2.98-1.14,4.12.02l36.99,37.02c1.71,1.69,3.99,2.64,6.35,2.64s4.69-.94,6.38-2.64l36.99-37.02c1.14-1.15,3-1.15,4.14,0l36.99,37.02c1.69,1.69,3.99,2.64,6.38,2.64s4.61-.94,6.31-2.64l31.76-31.76h-25.38Zm-163.73-17.96l-28.63,28.59c-1.14,1.14-2.98,1.14-4.12,0l-28.59-28.59c-1.14-1.14-1.14-2.98,0-4.12l28.59-28.59c1.14-1.14,2.98-1.14,4.12,0l28.63,28.59c1.14,1.14,1.14,2.98,0,4.12Zm12.69-16.81l-28.62-28.59c-1.15-1.14-1.15-3-.01-4.13l28.63-28.62c1.14-1.14,2.98-1.14,4.12,0l28.59,28.62c1.14,1.15,1.14,3,0,4.13l-28.59,28.59c-1.14,1.14-2.98,1.14-4.12,0Zm78.15,16.81l-28.62,28.63c-1.14,1.14-3,1.14-4.14,0l-28.59-28.63c-1.14-1.14-1.14-2.98,0-4.12l28.59-28.59c1.14-1.14,3-1.14,4.14,0l28.62,28.59c1.14,1.14,1.14,2.98,0,4.12Z"/>
    <path class="cls-1" d="m403.18,266.65c-.89,0-1.73.06-2.53.18-.8.12-1.53.31-2.18.58-.65.27-1.19.68-1.6,1.24-.42.56-.59,1.29-.53,2.18.06,1.01.46,1.81,1.2,2.4.74.59,1.79,1.07,3.16,1.42,1.3.36,2.76.7,4.36,1.02,1.6.33,3.17.67,4.71,1.02,1.54.36,3.05.77,4.53,1.24,1.48.47,2.78,1.07,3.91,1.78,1.54.95,2.81,2.28,3.82,4,1.01,1.72,1.48,3.82,1.42,6.31,0,2.43-.4,4.52-1.2,6.27-.8,1.75-1.88,3.24-3.24,4.49-1.72,1.54-3.88,2.65-6.49,3.33-2.61.68-5.24,1.02-7.91,1.02-3.08,0-5.91-.33-8.49-.98-2.58-.65-4.93-1.81-7.07-3.47-1.54-1.24-2.83-2.77-3.87-4.58-1.04-1.81-1.64-3.98-1.82-6.53h12.62c.36,2.02,1.35,3.41,2.98,4.18,1.63.77,3.57,1.16,5.82,1.16.65,0,1.35-.04,2.09-.13.74-.09,1.42-.27,2.04-.53s1.16-.68,1.6-1.25c.44-.56.67-1.17.67-1.82.06-1.54-.46-2.64-1.56-3.29-1.1-.65-2.27-1.1-3.51-1.33-1.24-.3-2.58-.59-4-.89-1.42-.3-2.83-.59-4.22-.89-1.39-.3-2.77-.67-4.13-1.11-1.36-.44-2.61-1.05-3.73-1.82-1.72-1.07-3.16-2.49-4.31-4.27-1.16-1.78-1.64-4.12-1.47-7.02.12-2.55.76-4.72,1.91-6.53,1.16-1.81,2.61-3.26,4.36-4.35,1.75-1.1,3.73-1.88,5.96-2.36,2.22-.47,4.49-.71,6.8-.71,2.55,0,4.95.27,7.2.8,2.25.53,4.22,1.39,5.91,2.58,1.69,1.19,3.05,2.73,4.09,4.62,1.04,1.9,1.61,4.21,1.73,6.93h-12.09c-.24-1.96-.99-3.26-2.27-3.91-1.27-.65-2.83-.98-4.67-.98Z"/>
  </g>
</svg>