<svg width="21" height="21" viewBox="0 0 21 21" fill="none" xmlns="http://www.w3.org/2000/svg">
<g clip-path="url(#clip0_2508_108409)">
<path d="M20.6859 13.0392C19.283 18.6672 13.5809 22.0884 7.96096 20.6854C2.33279 19.2825 -1.0884 13.5807 0.314579 7.96079C1.71748 2.33279 7.41127 -1.0884 13.0394 0.314579C18.6594 1.70927 22.0889 7.4111 20.6859 13.0392Z" fill="url(#paint0_linear_2508_108409)"/>
<path d="M14.9594 7.88956C14.7801 6.49149 13.5573 6.05081 12.0162 5.96357L11.9623 4.01057L10.779 4.04445L10.8354 5.94563C10.5233 5.95656 10.2032 5.9697 9.88534 5.99074L9.8267 4.08167L8.6434 4.11555L8.70301 6.05843C8.44266 6.07186 8.1902 6.08307 7.94564 6.09206L7.94343 6.08416L6.30482 6.13506L6.34508 7.40177C6.34508 7.40177 7.21966 7.36081 7.20608 7.37314C7.6873 7.35737 7.85051 7.63533 7.90121 7.8767L7.96288 10.1002C7.99669 10.0992 8.0384 10.096 8.09243 10.1064C8.05073 10.1096 8.00902 10.1128 7.9651 10.1081L8.05416 13.2184C8.03655 13.3682 7.95202 13.6135 7.62183 13.6209C7.63416 13.6345 6.76082 13.6496 6.76082 13.6496L6.56482 15.0763L8.11211 15.034C8.40059 15.0297 8.67896 15.0197 8.95954 15.0177L9.01791 16.9865L10.2012 16.9526L10.1473 14.9996C10.4696 14.9944 10.7919 14.9891 11.0961 14.9804L11.1557 16.9233L12.339 16.8894L12.2807 14.9206C14.2759 14.744 15.6577 14.2029 15.769 12.3228C15.8651 10.8134 15.1358 10.1575 13.9944 9.91552C14.6823 9.54353 15.0921 8.90881 14.9594 7.88956ZM13.4216 12.1552C13.4676 13.6247 10.9373 13.534 10.1338 13.555L10.057 10.9438C10.8605 10.9228 13.3815 10.6158 13.4216 12.1552ZM12.765 8.47984C12.8015 9.82428 10.6949 9.72538 10.0266 9.74252L9.95884 7.37593C10.6271 7.35878 12.7231 7.0858 12.765 8.47984Z" fill="white"/>
</g>
<defs>
<linearGradient id="paint0_linear_2508_108409" x1="1049.43" y1="-0.504" x2="1049.43" y2="2099.79" gradientUnits="userSpaceOnUse">
<stop stop-color="#F9AA4B"/>
<stop offset="1" stop-color="#F7931A"/>
</linearGradient>
<clipPath id="clip0_2508_108409">
<rect width="21" height="21" fill="white"/>
</clipPath>
</defs>
</svg>
