<svg width="17" height="16" viewBox="0 0 17 16" fill="none" xmlns="http://www.w3.org/2000/svg">
<g clip-path="url(#clip0_2498_9217)">
<path d="M16.6942 3.11106C16.3678 2.58172 15.7673 2.22217 15.0716 2.22217H8.4778V3.11106H16.6942ZM0 11.1111H16.9556V11.9999H0V11.1111ZM8.4778 7.5555H16.9556V8.44439H8.4778V7.5555ZM8.4778 5.77772H16.9556V6.66661H8.4778V5.77772ZM0 9.33328H16.9556V10.2222H0V9.33328ZM1.88396 13.7777H15.0716C15.7673 13.7777 16.3678 13.4182 16.6942 12.8888H0.261399C0.587794 13.4182 1.18831 13.7777 1.88396 13.7777ZM8.4778 3.99995H16.9556V4.88884H8.4778V3.99995Z" fill="#B22334"/>
<path d="M0.0320273 12.3018C0.0400341 12.3431 0.0489829 12.3844 0.0598156 12.4249C0.0720613 12.4698 0.087133 12.5129 0.103147 12.5564C0.145065 12.6715 0.195931 12.7826 0.259986 12.8866L0.261399 12.8889H16.6942L16.6951 12.8871C16.7584 12.7823 16.8107 12.672 16.8515 12.5578C16.8825 12.4743 16.9065 12.3887 16.9231 12.3018C16.9424 12.204 16.9556 12.1035 16.9556 12H0C0 12.1035 0.0131877 12.2035 0.0320273 12.3018ZM0 10.2222H16.9556V11.1111H0V10.2222ZM0 8.44442V9.33331H16.9556V8.44442H8.4778H0ZM8.4778 6.66664H16.9556V7.55553H8.4778V6.66664ZM8.4778 4.88886H16.9556V5.77775H8.4778V4.88886ZM0.0602866 3.57508C0.0720613 3.52975 0.0885459 3.48664 0.103618 3.44308C0.0872615 3.4865 0.0728057 3.53054 0.0602866 3.57508ZM8.4778 3.99997H16.9556C16.9556 3.89642 16.9424 3.79597 16.9231 3.69775C16.9066 3.61069 16.8825 3.52506 16.851 3.44175C16.8102 3.327 16.7577 3.21626 16.6942 3.11108H8.4778V3.99997Z" fill="#EEEEEE"/>
<path d="M8.4778 2.22217H1.88396C1.3843 2.22217 0.905108 2.40947 0.551798 2.74287C0.198488 3.07626 0 3.52845 0 3.99995L0 8.44439H8.4778V2.22217Z" fill="#3C3B6E"/>
<path d="M0.942383 3.43375L1.23345 3.63331L1.1223 3.95553L1.4129 3.75642L1.70397 3.95553L1.59282 3.63331L1.88389 3.43375H1.52405L1.4129 3.11108L1.30222 3.43375H0.942383ZM1.88436 4.32264L2.17543 4.5222L2.06428 4.84442L2.35488 4.64531L2.64595 4.84442L2.5348 4.5222L2.82587 4.32264H2.46603L2.35488 3.99997L2.2442 4.32264H1.88436ZM3.76832 4.32264L4.05939 4.5222L3.94824 4.84442L4.23884 4.64531L4.52991 4.84442L4.41875 4.5222L4.70982 4.32264H4.34999L4.23884 3.99997L4.12815 4.32264H3.76832ZM5.65227 4.32264L5.94334 4.5222L5.83219 4.84442L6.12279 4.64531L6.41386 4.84442L6.30271 4.5222L6.59378 4.32264H6.23394L6.12279 3.99997L6.01211 4.32264H5.65227ZM1.88436 6.10042L2.17543 6.29997L2.06428 6.6222L2.35488 6.42308L2.64595 6.6222L2.5348 6.29997L2.82587 6.10042H2.46603L2.35488 5.77775L2.2442 6.10042H1.88436ZM3.76832 6.10042L4.05939 6.29997L3.94824 6.6222L4.23884 6.42308L4.52991 6.6222L4.41875 6.29997L4.70982 6.10042H4.34999L4.23884 5.77775L4.12815 6.10042H3.76832ZM5.65227 6.10042L5.94334 6.29997L5.83219 6.6222L6.12279 6.42308L6.41386 6.6222L6.30271 6.29997L6.59378 6.10042H6.23394L6.12279 5.77775L6.01211 6.10042H5.65227ZM2.82634 3.43375L3.11741 3.63331L3.00626 3.95553L3.29686 3.75642L3.58793 3.95553L3.47677 3.63331L3.76785 3.43375H3.40801L3.29686 3.11108L3.18617 3.43375H2.82634ZM4.71029 3.43375L5.00137 3.63331L4.89021 3.95553L5.18081 3.75642L5.47188 3.95553L5.36073 3.63331L5.6518 3.43375H5.29197L5.18081 3.11108L5.07013 3.43375H4.71029ZM6.59425 3.43375L6.88532 3.63331L6.77417 3.95553L7.06477 3.75642L7.35584 3.95553L7.24469 3.63331L7.53576 3.43375H7.17592L7.06477 3.11108L6.95409 3.43375H6.59425ZM0.942383 5.21153L1.23345 5.41108L1.1223 5.73331L1.4129 5.5342L1.70397 5.73331L1.59282 5.41108L1.88389 5.21153H1.52405L1.4129 4.88886L1.30222 5.21153H0.942383ZM3.00626 5.73331L3.29686 5.5342L3.58793 5.73331L3.47677 5.41108L3.76785 5.21153H3.40801L3.29686 4.88886L3.18617 5.21153H2.82634L3.11741 5.41108L3.00626 5.73331ZM4.71029 5.21153L5.00137 5.41108L4.89021 5.73331L5.18081 5.5342L5.47188 5.73331L5.36073 5.41108L5.6518 5.21153H5.29197L5.18081 4.88886L5.07013 5.21153H4.71029ZM6.59425 5.21153L6.88532 5.41108L6.77417 5.73331L7.06477 5.5342L7.35584 5.73331L7.24469 5.41108L7.53576 5.21153H7.17592L7.06477 4.88886L6.95409 5.21153H6.59425ZM0.942383 6.98931L1.23345 7.18886L1.1223 7.51108L1.4129 7.31197L1.70397 7.51108L1.59282 7.18886L1.88389 6.98931H1.52405L1.4129 6.66664L1.30222 6.98931H0.942383ZM3.00626 7.51108L3.29686 7.31197L3.58793 7.51108L3.47677 7.18886L3.76785 6.98931H3.40801L3.29686 6.66664L3.18617 6.98931H2.82634L3.11741 7.18886L3.00626 7.51108ZM4.71029 6.98931L5.00137 7.18886L4.89021 7.51108L5.18081 7.31197L5.47188 7.51108L5.36073 7.18886L5.6518 6.98931H5.29197L5.18081 6.66664L5.07013 6.98931H4.71029ZM6.59425 6.98931L6.88532 7.18886L6.77417 7.51108L7.06477 7.31197L7.35584 7.51108L7.24469 7.18886L7.53576 6.98931H7.17592L7.06477 6.66664L6.95409 6.98931H6.59425Z" fill="black"/>
</g>
<defs>
<clipPath id="clip0_2498_9217">
<rect width="16.9556" height="16" fill="white"/>
</clipPath>
</defs>
</svg>
