<svg width="25" height="24" viewBox="0 0 25 24" fill="none" xmlns="http://www.w3.org/2000/svg">
<path d="M21.4 12C21.4 11.4033 21.1629 10.831 20.741 10.409C20.319 9.98705 19.7467 9.75 19.15 9.75H15.4C15.4 10.5456 15.0839 11.3087 14.5213 11.8713C13.9587 12.4339 13.1956 12.75 12.4 12.75C11.6043 12.75 10.8413 12.4339 10.2786 11.8713C9.71603 11.3087 9.39996 10.5456 9.39996 9.75H5.64996C5.05323 9.75 4.48093 9.98705 4.05897 10.409C3.63702 10.831 3.39996 11.4033 3.39996 12M21.4 12V18C21.4 18.5967 21.1629 19.169 20.741 19.591C20.319 20.0129 19.7467 20.25 19.15 20.25H5.64996C5.05323 20.25 4.48093 20.0129 4.05897 19.591C3.63702 19.169 3.39996 18.5967 3.39996 18V12M21.4 12V9M3.39996 12V9M21.4 9C21.4 8.40326 21.1629 7.83097 20.741 7.40901C20.319 6.98705 19.7467 6.75 19.15 6.75H5.64996C5.05323 6.75 4.48093 6.98705 4.05897 7.40901C3.63702 7.83097 3.39996 8.40326 3.39996 9M21.4 9V6C21.4 5.40326 21.1629 4.83097 20.741 4.40901C20.319 3.98705 19.7467 3.75 19.15 3.75H5.64996C5.05323 3.75 4.48093 3.98705 4.05897 4.40901C3.63702 4.83097 3.39996 5.40326 3.39996 6V9" stroke="#B8B9B9" stroke-width="1.5" stroke-linecap="round" stroke-linejoin="round"/>
</svg>
